<svg xmlns="http://www.w3.org/2000/svg" viewBox="0 0 44 44"><title>run</title><path d="M41.62,16.69l-.76-.19v7.86l.76-.19a3.14,3.14,0,0,0,2.38-3V19.74A3.15,3.15,0,0,0,41.62,16.69Z" style="fill:#fff"/><polygon points="15.71 12.57 15.71 28.29 36.14 34.57 36.14 6.29 15.71 12.57" style="fill:#fff"/><path d="M12.57,12.89l-9.74,1A3.14,3.14,0,0,0,0,17v6.88A3.14,3.14,0,0,0,2.83,27l9.74,1Z" style="fill:#fff"/><path d="M5.57,21.08,8.45,38A1.57,1.57,0,0,0,10,39.29h1a1.57,1.57,0,0,0,1.57-1.57V26.54Z" style="fill:#fff"/><path d="M35.36,36.14h0a2.36,2.36,0,0,0,2.36-2.36V7.07a2.36,2.36,0,0,0-2.36-2.36h0A2.36,2.36,0,0,0,33,7.07V33.79A2.36,2.36,0,0,0,35.36,36.14Z" style="fill:#fff"/></svg>