<svg xmlns="http://www.w3.org/2000/svg" viewBox="0 0 291.85 38.87"><title>sa</title><path d="M.86,10.39C.86,4.74,5.28,0,12.6,0c4.63,0,8.5,1.56,10.77,4L19.81,9a8.71,8.71,0,0,0-6.67-2.8c-3.28,0-5.28,1.67-5.28,4.15,0,7.81,17.06,5.33,17.06,17.87,0,6.35-5.54,10.66-12.6,10.66-4.84,0-10.5-2.1-12.33-5.92l3.77-4.52a11.34,11.34,0,0,0,8.67,4.25c3.12,0,5.49-1.56,5.49-4.41C17.93,20.83.86,22.66.86,10.39Z" style="fill:#fff"/><path d="M61.8,22.18H44.58v16.1H38V.59h6.62V16H61.8V.59h6.57V38.28H61.8Z" style="fill:#fff"/><path d="M114.67,22.66c0,11.52-7.05,16.2-15,16.2-9.37,0-16-5.54-16-16.58V.59h6.62V20.89c0,7.05,2.91,11.79,9.42,11.79,5.71,0,8.4-4,8.4-11.36V.59h6.57Z" style="fill:#fff"/><path d="M125.33.59h31.06V6.78H144.17V38.28h-6.62V6.78H125.33Z" style="fill:#fff"/><path d="M195.43.48h5.81l15.93,37.79h-7.05l-3.93-9.64H190.1l-3.93,9.64h-6.67Zm-2.8,22h11L198.17,9Z" style="fill:#fff"/><path d="M228.21,38.28V.59c2.1,0,8.08-.11,10.71-.11,11.09,0,14.59,5.92,14.59,12.11,0,6.41-4.79,12.22-13.78,12.22-1.13,0-3.28,0-4.9-.16V38.28Zm6.62-31.49V18.36a46.54,46.54,0,0,0,4.68.27c3.93,0,7-1.88,7-6.08,0-3.93-2.42-5.87-6.94-5.87C238.23,6.68,236.61,6.73,234.83,6.78Z" style="fill:#fff"/><path d="M266.54,38.28V.59c2.1,0,8.08-.11,10.71-.11,11.09,0,14.59,5.92,14.59,12.11,0,6.41-4.79,12.22-13.78,12.22-1.13,0-3.28,0-4.9-.16V38.28Zm6.62-31.49V18.36a46.5,46.5,0,0,0,4.68.27c3.93,0,7-1.88,7-6.08,0-3.93-2.42-5.87-6.95-5.87C276.56,6.68,274.94,6.73,273.17,6.78Z" style="fill:#fff"/></svg>