<?xml version="1.0" encoding="iso-8859-1"?>
<!-- Generator: Adobe Illustrator 19.0.0, SVG Export Plug-In . SVG Version: 6.00 Build 0)  -->
<svg xmlns="http://www.w3.org/2000/svg" xmlns:xlink="http://www.w3.org/1999/xlink" version="1.1" id="Capa_1" x="0px" y="0px" viewBox="0 0 512 512" style="enable-background:new 0 0 512 512;" xml:space="preserve" width="512px" height="512px">
<g>
	<g>
		<path d="M457,176.484v159.032c32.106-12.154,55-43.205,55-79.516S489.106,188.637,457,176.484z" fill="#FFFFFF"/>
	</g>
</g>
<g>
	<g>
		<path d="M60,167.15V376c0,58.448,47.551,106,106,106c47.69,0,88.733-31.717,101.715-76.146L337,426.202V85.798L60,167.15z     M166,452c-41.907,0-76-34.094-76-76v-22.339l148.912,43.734C229.615,429.25,200.201,452,166,452z" fill="#FFFFFF"/>
	</g>
</g>
<g>
	<g>
		<rect y="151" width="30" height="210" fill="#FFFFFF"/>
	</g>
</g>
<g>
	<g>
		<polygon points="397,30 397,68.177 367,76.988 367,435.012 397,443.823 397,482 427,482 427,30   " fill="#FFFFFF"/>
	</g>
</g>
<g>
</g>
<g>
</g>
<g>
</g>
<g>
</g>
<g>
</g>
<g>
</g>
<g>
</g>
<g>
</g>
<g>
</g>
<g>
</g>
<g>
</g>
<g>
</g>
<g>
</g>
<g>
</g>
<g>
</g>
</svg>
